<svg id="visual" viewBox="0 0 900 600" width="900" height="600" xmlns="http://www.w3.org/2000/svg" xmlns:xlink="http://www.w3.org/1999/xlink" version="1.1"><rect x="0" y="0" width="900" height="600" fill="#001220"></rect><defs><linearGradient id="grad1_0" x1="33.3%" y1="0%" x2="100%" y2="100%"><stop offset="20%" stop-color="#284397" stop-opacity="1"></stop><stop offset="80%" stop-color="#284397" stop-opacity="1"></stop></linearGradient></defs><defs><linearGradient id="grad1_1" x1="33.3%" y1="0%" x2="100%" y2="100%"><stop offset="20%" stop-color="#284397" stop-opacity="1"></stop><stop offset="80%" stop-color="#00356f" stop-opacity="1"></stop></linearGradient></defs><defs><linearGradient id="grad1_2" x1="33.3%" y1="0%" x2="100%" y2="100%"><stop offset="20%" stop-color="#002446" stop-opacity="1"></stop><stop offset="80%" stop-color="#00356f" stop-opacity="1"></stop></linearGradient></defs><defs><linearGradient id="grad1_3" x1="33.3%" y1="0%" x2="100%" y2="100%"><stop offset="20%" stop-color="#002446" stop-opacity="1"></stop><stop offset="80%" stop-color="#001220" stop-opacity="1"></stop></linearGradient></defs><defs><linearGradient id="grad2_0" x1="0%" y1="0%" x2="66.7%" y2="100%"><stop offset="20%" stop-color="#284397" stop-opacity="1"></stop><stop offset="80%" stop-color="#284397" stop-opacity="1"></stop></linearGradient></defs><defs><linearGradient id="grad2_1" x1="0%" y1="0%" x2="66.7%" y2="100%"><stop offset="20%" stop-color="#00356f" stop-opacity="1"></stop><stop offset="80%" stop-color="#284397" stop-opacity="1"></stop></linearGradient></defs><defs><linearGradient id="grad2_2" x1="0%" y1="0%" x2="66.7%" y2="100%"><stop offset="20%" stop-color="#00356f" stop-opacity="1"></stop><stop offset="80%" stop-color="#002446" stop-opacity="1"></stop></linearGradient></defs><defs><linearGradient id="grad2_3" x1="0%" y1="0%" x2="66.7%" y2="100%"><stop offset="20%" stop-color="#001220" stop-opacity="1"></stop><stop offset="80%" stop-color="#002446" stop-opacity="1"></stop></linearGradient></defs><g transform="translate(900, 0)"><path d="M0 486.7C-47.6 443.7 -95.2 400.7 -159.2 384.3C-223.2 368 -303.6 378.3 -344.2 344.2C-384.8 310.1 -385.7 231.6 -402.8 166.8C-419.9 102.1 -453.3 51 -486.7 0L0 0Z" fill="#001c33"></path><path d="M0 365.1C-35.7 332.8 -71.4 300.5 -119.4 288.3C-167.4 276 -227.7 283.7 -258.1 258.1C-288.6 232.6 -289.3 173.7 -302.1 125.1C-315 76.6 -340 38.3 -365.1 0L0 0Z" fill="#002d5a"></path><path d="M0 243.4C-23.8 221.9 -47.6 200.3 -79.6 192.2C-111.6 184 -151.8 189.1 -172.1 172.1C-192.4 155 -192.8 115.8 -201.4 83.4C-210 51 -226.7 25.5 -243.4 0L0 0Z" fill="#0d3c83"></path><path d="M0 121.7C-11.9 110.9 -23.8 100.2 -39.8 96.1C-55.8 92 -75.9 94.6 -86 86C-96.2 77.5 -96.4 57.9 -100.7 41.7C-105 25.5 -113.3 12.8 -121.7 0L0 0Z" fill="#284397"></path></g><g transform="translate(0, 600)"><path d="M0 -486.7C66.5 -478.2 133 -469.6 181 -437C229 -404.4 258.6 -347.9 305.5 -305.5C352.4 -263.1 416.6 -234.8 449.7 -186.3C482.8 -137.7 484.8 -68.9 486.7 0L0 0Z" fill="#001c33"></path><path d="M0 -365.1C49.9 -358.6 99.7 -352.2 135.8 -327.7C171.8 -303.3 193.9 -260.9 229.1 -229.1C264.3 -197.3 312.4 -176.1 337.3 -139.7C362.1 -103.3 363.6 -51.6 365.1 0L0 0Z" fill="#002d5a"></path><path d="M0 -243.4C33.2 -239.1 66.5 -234.8 90.5 -218.5C114.5 -202.2 129.3 -173.9 152.7 -152.7C176.2 -131.5 208.3 -117.4 224.8 -93.1C241.4 -68.9 242.4 -34.4 243.4 0L0 0Z" fill="#0d3c83"></path><path d="M0 -121.7C16.6 -119.5 33.2 -117.4 45.3 -109.2C57.3 -101.1 64.6 -87 76.4 -76.4C88.1 -65.8 104.1 -58.7 112.4 -46.6C120.7 -34.4 121.2 -17.2 121.7 0L0 0Z" fill="#284397"></path></g></svg>