<svg id="visual" viewBox="0 0 900 600" width="900" height="600" xmlns="http://www.w3.org/2000/svg" xmlns:xlink="http://www.w3.org/1999/xlink" version="1.1"><rect x="0" y="0" width="900" height="600" fill="#001220"></rect><defs><linearGradient id="grad1_0" x1="33.3%" y1="0%" x2="100%" y2="100%"><stop offset="20%" stop-color="#001220" stop-opacity="1"></stop><stop offset="80%" stop-color="#001220" stop-opacity="1"></stop></linearGradient></defs><defs><linearGradient id="grad2_0" x1="0%" y1="0%" x2="66.7%" y2="100%"><stop offset="20%" stop-color="#001220" stop-opacity="1"></stop><stop offset="80%" stop-color="#001220" stop-opacity="1"></stop></linearGradient></defs><g transform="translate(900, 0)"><path d="M0 540.8C-90.6 520.8 -181.3 500.7 -264.5 458.1C-347.7 415.6 -423.6 350.5 -468.4 270.4C-513.2 190.3 -527 95.2 -540.8 0L0 0Z" fill="#FBAE3C"></path></g><g transform="translate(0, 600)"><path d="M0 -540.8C94.7 -526.7 189.4 -512.7 270.4 -468.4C351.4 -424.1 418.8 -349.6 461.6 -266.5C504.4 -183.4 522.6 -91.7 540.8 0L0 0Z" fill="#FBAE3C"></path></g></svg>